<svg width="2627" height="298" viewBox="0 0 2627 298" fill="none" xmlns="http://www.w3.org/2000/svg">
<path fill-rule="evenodd" clip-rule="evenodd" d="M0 111.75L109.458 142.792C218.917 173.833 437.833 235.917 656.75 260.75C875.667 285.583 1094.58 273.167 1313.5 242.125C1532.42 211.083 1751.33 161.417 1970.25 117.958C2189.17 74.5 2408.08 37.25 2517.54 18.625L2627 0V298H2517.54C2408.08 298 2189.17 298 1970.25 298C1751.33 298 1532.42 298 1313.5 298C1094.58 298 875.667 298 656.75 298C437.833 298 218.917 298 109.458 298H0V111.75Z" fill="#FFF7E1"/>
</svg>
