<svg width="3289" height="298" viewBox="0 0 3289 298" fill="none" xmlns="http://www.w3.org/2000/svg">
<path fill-rule="evenodd" clip-rule="evenodd" d="M3289 111.75L3151.96 142.792C3014.92 173.833 2740.83 235.917 2466.75 260.75C2192.67 285.583 1918.58 273.167 1644.5 242.125C1370.42 211.083 1096.33 161.417 822.25 117.958C548.167 74.5 274.083 37.25 137.042 18.625L8.96454e-05 0V298H137.042C274.083 298 548.167 298 822.25 298C1096.33 298 1370.42 298 1644.5 298C1918.58 298 2192.67 298 2466.75 298C2740.83 298 3014.92 298 3151.96 298H3289V111.75Z" fill="white"/>
</svg>
