<svg width="1444" height="1743" viewBox="0 0 1444 1743" fill="none" xmlns="http://www.w3.org/2000/svg">
<path fill-rule="evenodd" clip-rule="evenodd" d="M847.346 156.333C969.729 188.436 1108.7 132.59 1211.2 218.497C1328.34 316.672 1441.97 465.653 1443.41 656.861C1444.83 846.627 1298.49 989.979 1218.73 1160.09C1141.18 1325.47 1107.82 1535.35 983.172 1639.91C853.597 1748.61 692.639 1763.42 553.931 1720.14C421.989 1678.97 339.945 1532.96 246.751 1410.16C149.554 1282.09 -7.90851 1181.97 0.84021 990.596C9.6846 797.132 204.739 698.667 287.205 527.43C365.134 365.612 337.065 108.433 466.357 22.7806C595.717 -62.9161 714.326 121.44 847.346 156.333Z" fill="#F9B300"/>
</svg>
