<svg width="1904" height="925" viewBox="0 0 1904 925" fill="none" xmlns="http://www.w3.org/2000/svg">
<rect x="1" y="288" width="1911" height="637" fill="#FFF7E1"/>
<path fill-rule="evenodd" clip-rule="evenodd" d="M-475 108L-365.542 138C-256.083 168 -37.1667 228 181.75 252C400.667 276 619.583 264 838.5 234C1057.42 204 1276.33 156 1495.25 114C1714.17 72 1933.08 36 2042.54 18L2152 0V288H2042.54C1933.08 288 1714.17 288 1495.25 288C1276.33 288 1057.42 288 838.5 288C619.583 288 400.667 288 181.75 288C-37.1667 288 -256.083 288 -365.542 288H-475V108Z" fill="#FFF7E1"/>
</svg>
